<?xml version="1.0" encoding="UTF-8" standalone="no"?>
<!DOCTYPE svg PUBLIC "-//W3C//DTD SVG 20010904//EN"
              "http://www.w3.org/TR/2001/REC-SVG-20010904/DTD/svg10.dtd">

<svg xmlns="http://www.w3.org/2000/svg"
     width="10in" height="10in"
     viewBox="0 0 720 720">
  <path id="Selection"
        fill="none" stroke="black" stroke-width="1"
        d="M 0.00,0.00
           C 0.00,0.00 0.00,720.00 0.00,720.00
             0.00,720.00 719.00,720.00 719.00,720.00
             719.00,720.00 719.00,0.00 719.00,0.00
             719.00,0.00 0.00,0.00 0.00,0.00 Z
           M 452.00,272.00
           C 441.81,274.89 434.39,271.57 435.04,260.00
             435.70,248.50 450.07,245.57 456.49,254.05
             461.21,260.30 456.81,264.26 459.89,271.00
             459.89,271.00 472.37,293.00 472.37,293.00
             474.05,296.12 476.69,300.39 476.44,304.00
             476.08,309.23 465.96,324.60 462.87,330.00
             460.02,334.99 454.87,346.23 449.96,348.83
             447.35,350.21 443.89,350.00 441.00,350.00
             441.00,350.00 404.00,350.00 404.00,350.00
             394.38,349.86 393.93,346.44 389.32,339.00
             389.32,339.00 377.64,319.00 377.64,319.00
             375.98,315.88 373.79,310.84 370.70,309.02
             368.59,307.78 365.40,308.00 363.00,308.00
             363.00,308.00 329.00,308.00 329.00,308.00
             325.62,307.96 322.12,307.82 319.18,305.91
             315.68,303.64 313.63,298.58 311.57,295.00
             308.53,289.69 298.52,271.50 294.82,268.43
             291.70,265.84 288.80,266.02 285.00,266.00
             285.00,266.00 262.00,266.00 262.00,266.00
             258.42,265.97 254.28,265.30 250.98,266.82
             244.54,269.79 238.37,283.70 234.60,290.00
             232.46,293.57 226.78,302.10 226.78,306.00
             226.78,310.33 234.82,322.57 237.23,327.00
             243.32,338.19 245.63,346.82 260.00,347.00
             264.51,347.05 278.32,347.50 281.74,345.63
             286.15,343.22 286.43,334.61 297.00,335.14
             309.37,335.77 312.14,351.30 303.81,357.26
             301.35,359.03 297.93,359.12 295.00,358.96
             287.43,358.53 287.55,354.55 281.83,353.19
             281.83,353.19 255.00,353.19 255.00,353.19
             251.67,352.99 248.12,353.20 245.09,351.55
             240.33,348.95 235.74,338.82 232.78,334.00
             227.97,326.19 220.27,315.14 219.81,306.00
             219.47,299.04 224.37,292.77 227.80,287.00
             231.29,281.14 239.99,263.39 245.18,260.57
             248.36,258.85 252.49,259.01 256.00,259.00
             256.00,259.00 295.00,259.00 295.00,259.00
             296.48,251.11 306.42,235.63 310.86,228.00
             313.64,223.23 315.87,217.91 321.00,215.14
             325.13,212.91 330.43,213.98 335.00,214.00
             341.15,214.03 360.33,214.72 364.99,212.85
             369.51,211.04 371.78,207.02 374.14,203.00
             374.14,203.00 385.28,184.00 385.28,184.00
             386.82,181.31 389.61,177.04 389.82,174.00
             390.15,169.50 382.90,158.18 380.40,154.00
             377.16,148.58 371.57,136.39 365.96,134.01
             363.44,132.93 360.68,133.01 358.00,132.96
             358.00,132.96 338.00,132.96 338.00,132.96
             332.36,132.60 325.93,131.98 321.21,135.80
             318.43,138.05 313.78,147.32 311.60,151.00
             311.60,151.00 305.70,161.83 305.70,161.83
             304.82,165.58 308.64,166.54 309.37,173.00
             310.91,186.50 291.47,192.15 286.01,178.99
             284.35,174.99 284.89,169.60 287.65,166.21
             291.08,162.00 294.81,163.08 298.37,158.86
             298.37,158.86 310.58,138.00 310.58,138.00
             312.51,134.67 314.62,130.07 318.09,128.17
             320.24,127.00 322.63,127.04 325.00,127.00
             325.00,127.00 358.00,127.00 358.00,127.00
             362.22,127.00 369.36,126.31 372.82,128.74
             376.31,131.19 386.22,149.16 388.97,154.00
             392.82,160.78 398.46,167.78 396.86,176.00
             395.53,182.86 385.42,197.83 381.65,205.00
             380.19,207.76 376.39,213.12 376.53,216.00
             376.66,218.55 381.16,225.51 382.66,228.00
             387.01,235.25 399.30,254.30 398.89,262.00
             398.38,271.81 380.18,294.19 378.97,302.00
             378.22,306.86 384.27,315.75 386.80,320.00
             389.88,325.17 396.87,339.07 401.18,341.99
             404.49,344.23 408.20,343.99 412.00,344.00
             412.00,344.00 438.00,344.00 438.00,344.00
             440.14,343.96 442.02,343.98 444.00,342.98
             450.24,339.82 458.65,322.66 462.60,316.00
             464.79,312.31 468.76,306.39 468.02,302.00
             468.02,302.00 452.00,272.00 452.00,272.00 Z
           M 315.00,128.00
           C 315.00,128.00 315.00,129.00 315.00,129.00
             315.00,129.00 314.00,128.00 314.00,128.00
             314.00,128.00 315.00,128.00 315.00,128.00 Z
           M 329.04,143.60
           C 334.34,142.45 349.72,142.96 356.00,143.00
             366.02,143.07 367.36,148.85 372.14,157.00
             374.42,160.90 379.35,168.62 379.35,173.00
             379.35,177.12 375.45,183.46 373.33,186.99
             366.92,197.65 367.51,203.98 353.00,204.00
             353.00,204.00 335.00,204.00 335.00,204.00
             324.85,203.86 323.75,198.05 319.15,190.00
             317.10,186.41 311.67,177.75 311.36,174.00
             311.11,170.92 312.89,167.67 314.26,165.00
             317.33,158.99 323.43,146.79 329.04,143.60 Z
           M 390.00,151.00
           C 390.00,151.00 390.00,152.00 390.00,152.00
             390.00,152.00 389.00,151.00 389.00,151.00
             389.00,151.00 390.00,151.00 390.00,151.00 Z
           M 385.00,165.00
           C 385.00,165.00 385.00,166.00 385.00,166.00
             385.00,166.00 384.00,165.00 384.00,165.00
             384.00,165.00 385.00,165.00 385.00,165.00 Z
           M 384.00,184.00
           C 384.00,184.00 384.00,185.00 384.00,185.00
             384.00,185.00 383.00,184.00 383.00,184.00
             383.00,184.00 384.00,184.00 384.00,184.00 Z
           M 393.00,243.00
           C 393.00,243.00 393.00,244.00 393.00,244.00
             393.00,244.00 392.00,243.00 392.00,243.00
             392.00,243.00 393.00,243.00 393.00,243.00 Z
           M 410.00,273.15
           C 410.00,273.15 432.00,273.15 432.00,273.15
             434.74,273.00 438.39,272.78 440.81,274.17
             443.32,275.62 444.77,278.62 446.28,281.00
             449.90,286.73 458.58,299.44 457.02,306.00
             456.19,309.50 448.68,321.83 446.37,326.00
             444.65,329.11 443.31,331.93 439.96,333.57
             437.47,334.79 422.63,335.03 419.00,334.99
             415.32,334.95 409.22,334.98 406.09,333.06
             402.55,330.89 397.56,321.03 395.22,317.00
             393.27,313.63 389.39,307.79 389.37,304.00
             389.36,299.84 394.42,291.86 396.53,288.00
             400.31,281.08 401.72,275.15 410.00,273.15 Z
           M 257.00,275.22
           C 257.00,275.22 280.00,275.22 280.00,275.22
             282.69,275.04 285.51,275.05 287.96,276.31
             292.94,278.88 298.40,289.94 301.13,295.00
             303.03,298.52 305.97,302.84 305.52,307.00
             305.10,310.85 296.66,325.05 294.19,329.00
             292.58,331.56 290.72,334.53 287.96,335.98
             285.49,337.27 275.31,337.00 272.00,337.00
             267.27,337.01 257.89,337.82 254.09,335.26
             249.85,332.41 243.65,319.97 240.81,315.00
             239.10,311.99 237.23,308.59 237.51,305.00
             237.82,301.07 243.58,291.66 245.81,288.00
             249.02,282.75 251.09,277.82 257.00,275.22 Z
           M 457.00,282.00
           C 457.00,282.00 457.00,283.00 457.00,283.00
             457.00,283.00 456.00,282.00 456.00,282.00
             456.00,282.00 457.00,282.00 457.00,282.00 Z
           M 470.00,285.00
           C 470.00,285.00 470.00,286.00 470.00,286.00
             470.00,286.00 469.00,285.00 469.00,285.00
             469.00,285.00 470.00,285.00 470.00,285.00 Z
           M 457.00,295.00
           C 457.00,295.00 457.00,296.00 457.00,296.00
             457.00,296.00 456.00,295.00 456.00,295.00
             456.00,295.00 457.00,295.00 457.00,295.00 Z
           M 478.00,311.00
           C 478.00,311.00 478.00,312.00 478.00,312.00
             478.00,312.00 477.00,311.00 477.00,311.00
             477.00,311.00 478.00,311.00 478.00,311.00 Z
           M 471.00,319.00
           C 471.00,319.00 471.00,320.00 471.00,320.00
             471.00,320.00 470.00,319.00 470.00,319.00
             470.00,319.00 471.00,319.00 471.00,319.00 Z
           M 457.00,322.00
           C 457.00,322.00 457.00,323.00 457.00,323.00
             457.00,323.00 456.00,322.00 456.00,322.00
             456.00,322.00 457.00,322.00 457.00,322.00 Z
           M 448.00,338.00
           C 448.00,338.00 448.00,339.00 448.00,339.00
             448.00,339.00 447.00,338.00 447.00,338.00
             447.00,338.00 448.00,338.00 448.00,338.00 Z
           M 444.00,407.00
           C 449.18,401.72 451.14,396.97 459.00,399.00
             455.87,405.67 452.61,406.93 452.11,409.32
             451.43,412.58 458.98,421.49 461.00,425.00
             452.65,427.26 449.48,421.76 446.00,415.00
             443.42,419.89 444.32,427.35 439.30,425.34
             436.87,424.38 437.04,421.14 437.20,419.00
             437.20,419.00 437.20,400.42 437.20,400.42
             437.19,397.73 436.67,392.51 437.20,390.13
             438.49,386.84 443.82,384.65 444.00,394.00
             444.00,394.00 444.00,407.00 444.00,407.00 Z
           M 259.00,411.00
           C 259.00,411.00 259.00,407.00 259.00,407.00
             258.96,403.40 257.28,391.25 261.30,389.66
             265.58,387.95 265.95,393.33 266.00,396.00
             266.15,404.36 267.29,420.89 264.00,428.00
             264.00,428.00 258.58,424.46 258.58,424.46
             258.58,424.46 245.00,403.00 245.00,403.00
             243.24,408.16 243.95,408.77 244.00,414.00
             244.02,416.99 245.17,427.57 239.26,425.34
             236.82,424.43 236.23,421.28 236.13,419.00
             236.13,419.00 236.99,409.00 236.99,409.00
             236.99,409.00 236.08,396.00 236.08,396.00
             236.13,393.61 236.61,390.57 239.22,389.66
             242.11,388.64 244.49,391.08 246.18,393.06
             250.86,398.50 253.03,405.20 259.00,411.00 Z
           M 374.00,410.00
           C 374.00,410.00 377.19,416.00 377.19,416.00
             378.37,418.07 382.25,424.08 378.65,425.75
             377.48,426.29 376.22,425.85 375.21,425.21
             368.93,421.17 372.23,412.91 361.00,412.00
             361.00,414.48 361.28,421.91 360.40,423.77
             359.08,426.68 355.88,426.43 354.60,423.77
             353.79,422.02 354.00,417.06 354.00,415.00
             354.00,415.00 354.00,397.00 354.00,397.00
             354.02,394.87 353.74,391.49 355.60,390.02
             358.16,387.99 372.77,388.75 376.36,391.82
             381.81,396.47 380.93,406.45 374.00,410.00 Z
           M 456.00,396.00
           C 456.00,396.00 456.00,397.00 456.00,397.00
             456.00,397.00 455.00,396.00 455.00,396.00
             455.00,396.00 456.00,396.00 456.00,396.00 Z
           M 286.00,408.00
           C 284.45,405.19 283.55,403.74 280.00,404.83
             278.25,405.36 274.67,408.10 272.79,406.21
             270.23,403.66 275.37,396.88 283.00,397.39
             293.93,398.13 292.96,405.77 293.00,414.00
             293.01,416.91 294.54,424.03 291.67,425.58
             290.47,425.92 288.33,425.70 287.00,425.58
             282.57,426.11 278.61,427.82 274.39,424.86
             267.42,419.98 271.16,411.35 278.00,408.88
             280.58,407.94 283.31,408.02 286.00,408.00 Z
           M 311.00,397.51
           C 322.39,398.38 321.02,408.42 321.00,417.00
             321.00,419.49 321.46,424.36 318.70,425.60
             314.48,427.50 314.05,421.50 314.00,419.00
             313.94,415.60 315.23,405.73 310.86,404.87
             301.79,403.10 306.58,420.40 304.74,423.72
             304.16,424.77 303.16,425.60 301.95,425.80
             297.45,426.54 298.01,419.69 298.00,417.00
             297.99,413.64 297.11,400.88 299.60,399.06
             299.60,399.06 311.00,397.51 311.00,397.51 Z
           M 336.00,397.50
           C 339.83,397.66 343.37,398.21 346.06,401.25
             353.16,409.31 350.13,425.85 338.00,426.70
             322.56,427.78 317.28,401.00 336.00,397.50 Z
           M 394.00,397.42
           C 411.96,397.71 412.91,424.98 396.00,426.47
             379.68,427.91 375.58,401.34 394.00,397.42 Z
           M 422.00,397.50
           C 425.99,397.68 429.79,398.48 431.93,402.11
             433.33,403.94 434.27,407.54 431.93,408.75
             428.77,410.16 426.95,405.58 423.91,404.65
             418.36,402.96 415.89,411.39 417.74,415.96
             420.16,421.95 423.60,419.78 427.42,417.41
             428.99,416.45 431.55,415.11 432.79,417.41
             434.83,421.16 428.96,425.20 426.00,426.13
             415.22,429.53 408.79,418.34 410.21,409.00
             411.21,402.49 415.78,398.66 422.00,397.50 Z
           M 484.00,407.00
           C 473.88,409.13 475.59,399.82 469.00,407.00
             469.00,407.00 479.89,411.27 479.89,411.27
             484.65,414.17 485.29,420.75 480.77,424.16
             476.02,427.76 467.48,427.41 463.51,422.78
             461.93,420.94 461.58,419.24 461.00,417.00
             470.76,414.54 466.57,422.30 477.00,419.00
             471.60,412.07 464.91,414.97 462.73,407.98
             460.85,401.96 467.69,397.37 473.00,397.37
             479.21,397.37 482.78,401.30 484.00,407.00 Z
           M 448.00,401.00
           C 448.00,401.00 448.00,402.00 448.00,402.00
             448.00,402.00 447.00,401.00 447.00,401.00
             447.00,401.00 448.00,401.00 448.00,401.00 Z
           M 272.00,408.00
           C 272.00,408.00 272.00,409.00 272.00,409.00
             272.00,409.00 271.00,408.00 271.00,408.00
             271.00,408.00 272.00,408.00 272.00,408.00 Z
           M 317.00,427.00
           C 317.00,427.00 317.00,428.00 317.00,428.00
             317.00,428.00 316.00,427.00 316.00,427.00
             316.00,427.00 317.00,427.00 317.00,427.00 Z
           M 292.00,431.00
           C 292.00,431.00 292.00,432.00 292.00,432.00
             292.00,432.00 291.00,431.00 291.00,431.00
             291.00,431.00 292.00,431.00 292.00,431.00 Z
           M 412.97,446.20
           C 418.22,448.20 415.75,452.14 412.97,452.14
             410.07,452.14 407.65,448.22 412.97,446.20 Z
           M 254.00,446.00
           C 255.62,451.72 256.01,466.59 256.00,473.00
             255.99,476.08 256.52,481.09 252.86,482.34
             246.28,484.60 247.99,474.35 248.00,471.00
             248.01,464.11 247.24,452.19 249.00,446.00
             249.00,446.00 254.00,446.00 254.00,446.00 Z
           M 402.00,455.00
           C 407.45,456.91 406.16,460.09 401.00,461.00
             401.00,461.00 402.00,477.00 402.00,477.00
             408.39,479.04 406.43,482.63 402.94,483.25
             392.85,485.03 393.54,467.99 395.00,462.00
             389.45,459.51 388.89,456.27 395.00,454.00
             395.00,454.00 394.00,450.00 394.00,450.00
             399.72,448.66 401.27,448.85 402.00,455.00 Z
           M 273.00,454.47
           C 284.55,455.23 283.02,465.27 283.00,474.00
             283.00,476.04 283.21,479.94 281.98,481.59
             280.38,483.75 277.66,482.97 276.60,480.72
             275.33,478.03 276.60,468.51 275.57,465.06
             274.80,462.50 272.86,460.69 270.13,462.08
             265.91,464.22 267.07,471.98 267.00,476.00
             266.96,478.12 267.08,481.64 264.70,482.64
             259.73,484.71 260.01,476.54 260.00,474.00
             259.99,470.62 259.11,457.90 261.60,456.06
             262.45,455.43 271.24,454.67 273.00,454.47 Z
           M 300.00,454.49
           C 311.76,455.17 310.02,465.25 310.00,474.00
             309.99,476.72 310.38,484.37 305.30,482.34
             301.55,480.85 303.46,469.63 302.77,466.02
             302.23,463.17 300.37,460.43 297.13,462.08
             293.07,464.14 294.03,471.15 294.00,475.00
             293.98,477.31 294.34,481.29 291.70,482.34
             287.42,484.05 287.05,478.66 287.00,476.00
             286.95,472.92 286.68,460.25 287.60,458.15
             289.16,454.59 296.38,454.96 300.00,454.49 Z
           M 381.00,465.00
           C 378.22,456.73 373.88,463.35 370.76,463.95
             368.92,464.30 367.64,463.59 366.00,463.00
             370.34,452.38 381.55,452.44 386.11,458.34
             388.27,461.14 387.99,464.67 388.00,468.00
             388.01,470.63 389.06,480.58 387.36,481.96
             386.13,482.97 380.97,482.81 379.00,483.05
             374.92,483.55 369.90,483.49 367.23,479.75
             365.85,477.81 365.34,475.32 365.81,473.00
             367.32,465.59 374.86,465.13 381.00,465.00 Z
           M 433.00,454.61
           C 436.35,455.05 439.80,455.81 442.20,458.42
             448.10,464.84 448.11,483.66 432.00,482.95
             416.47,482.28 419.27,462.50 423.79,457.65
             426.09,455.17 429.83,454.80 433.00,454.61 Z
           M 461.00,454.54
           C 473.75,454.23 472.02,464.93 472.00,474.00
             471.99,476.72 472.38,484.37 467.30,482.34
             463.55,480.85 465.43,469.60 464.85,466.02
             464.38,463.05 462.42,460.44 459.14,462.08
             455.06,464.12 456.03,471.16 456.00,475.00
             455.98,477.26 456.35,481.34 453.70,482.29
             448.98,484.00 449.02,477.73 449.00,475.00
             448.98,471.57 448.11,457.87 450.60,456.06
             450.60,456.06 461.00,454.54 461.00,454.54 Z
           M 322.00,455.51
           C 327.34,454.56 331.86,454.69 335.70,459.11
             341.54,465.81 339.23,480.04 330.00,482.57
             312.00,487.50 306.67,462.04 322.00,455.51 Z
           M 353.00,471.00
           C 353.41,468.36 355.64,458.31 357.14,456.57
             358.97,454.46 363.18,454.84 363.22,458.15
             363.26,461.81 355.96,475.78 356.00,482.00
             347.69,483.95 348.77,481.70 343.35,467.04
             342.59,464.97 340.17,459.22 340.78,457.30
             341.51,455.03 344.58,454.53 346.59,457.30
             349.67,461.55 347.94,465.68 353.00,471.00 Z
           M 416.13,455.00
           C 416.13,455.00 416.13,473.00 416.13,473.00
             416.13,473.00 414.98,481.39 414.98,481.39
             414.98,481.39 409.00,482.00 409.00,482.00
             409.00,482.00 410.00,463.00 410.00,463.00
             410.00,463.00 411.02,456.60 411.02,456.60
             411.02,456.60 416.13,455.00 416.13,455.00 Z" />
</svg>
